<svg viewBox="599.5384 357.2245 330.9232 89.6177" width="216" height="58.49521339090157" xmlns="http://www.w3.org/2000/svg" xmlns:xlink="http://www.w3.org/1999/xlink" preserveAspectRatio="none"><g opacity="1" transform="rotate(0 599.5384 357.2245)">
<svg width="330.9232" height="89.6177" x="599.5384" y="357.2245" version="1.1" preserveAspectRatio="none" viewBox="1 -28 103.36 28">
  <g transform="matrix(1 0 0 1 0 0)" class="icon1126dc315-b1a1-4aea-b7b9-8cfe22d1722b"><path id="id-126dc315-b1a1-4aea-b7b9-8cfe22d1722bD6z1nYkh6" d="M1.48 0Q1.28 0 1.14-0.14Q1-0.28 1-0.48L1-0.48L1-3.68Q1-4 1.12-4.28L1.12-4.28L10.08-23.76Q10.12-23.84 10.08-23.92Q10.04-24 9.96-24L9.96-24L1.48-24Q1.28-24 1.14-24.14Q1-24.28 1-24.48L1-24.48L1-27.52Q1-27.72 1.14-27.86Q1.28-28 1.48-28L1.48-28L14.60-28Q14.80-28 14.94-27.86Q15.08-27.72 15.08-27.52L15.08-27.52L15.08-24.32Q15.08-24.04 14.96-23.72L14.96-23.72L6-4.24Q5.96-4.16 6-4.08Q6.04-4 6.12-4L6.12-4L14.60-4Q14.80-4 14.94-3.86Q15.08-3.72 15.08-3.52L15.08-3.52L15.08-0.48Q15.08-0.28 14.94-0.14Q14.80 0 14.60 0L14.60 0L1.48 0Z M22.08 0Q21.88 0 21.74-0.14Q21.60-0.28 21.60-0.48L21.60-0.48L21.60-27.52Q21.60-27.72 21.74-27.86Q21.88-28 22.08-28L22.08-28L25.76-28Q25.96-28 26.10-27.86Q26.24-27.72 26.24-27.52L26.24-27.52L26.24-0.48Q26.24-0.28 26.10-0.14Q25.96 0 25.76 0L25.76 0L22.08 0Z M34.24 0Q34.04 0 33.90-0.14Q33.76-0.28 33.76-0.48L33.76-0.48L33.76-27.52Q33.76-27.72 33.90-27.86Q34.04-28 34.24-28L34.24-28L41.08-28Q44.52-28 46.58-25.92Q48.64-23.84 48.64-20.36L48.64-20.36L48.64-7.64Q48.64-4.16 46.58-2.08Q44.52 0 41.08 0L41.08 0L34.24 0ZM38.40-4.20Q38.40-4 38.60-4L38.60-4L41-4.04Q42.32-4.04 43.14-5.10Q43.96-6.16 44-7.92L44-7.92L44-20.08Q44-21.88 43.18-22.94Q42.36-24 40.96-24L40.96-24L38.60-24Q38.40-24 38.40-23.80L38.40-23.80L38.40-4.20Z M70.92-7.68Q70.92-4 68.78-2Q66.64 0 63.20 0L63.20 0L56.16 0Q55.96 0 55.82-0.14Q55.68-0.28 55.68-0.48L55.68-0.48L55.68-27.52Q55.68-27.72 55.82-27.86Q55.96-28 56.16-28L56.16-28L62.48-28Q66.28-28 68.44-26.08Q70.60-24.16 70.60-20.48L70.60-20.48Q70.60-16.36 67.68-14.60L67.68-14.60Q67.48-14.48 67.60-14.36L67.60-14.36Q69.16-13.36 70.04-11.68Q70.92-10 70.92-7.68L70.92-7.68ZM60.52-24Q60.32-24 60.32-23.80L60.32-23.80L60.32-16.36Q60.32-16.16 60.52-16.16L60.52-16.16L62.56-16.16Q64.20-16.16 65.12-17.16Q66.04-18.16 66.04-20L66.04-20Q66.04-21.92 65.12-22.96Q64.20-24 62.56-24L62.56-24L60.52-24ZM62.84-4.04Q64.44-4.04 65.36-5.16Q66.28-6.28 66.28-8.32L66.28-8.32Q66.28-10.40 65.36-11.58Q64.44-12.76 62.84-12.76L62.84-12.76L60.52-12.76Q60.32-12.76 60.32-12.56L60.32-12.56L60.32-4.24Q60.32-4.04 60.52-4.04L60.52-4.04L62.84-4.04Z M77.84 0Q77.64 0 77.50-0.14Q77.36-0.28 77.36-0.48L77.36-0.48L77.36-27.52Q77.36-27.72 77.50-27.86Q77.64-28 77.84-28L77.84-28L81.52-28Q81.72-28 81.86-27.86Q82.00-27.72 82.00-27.52L82.00-27.52L82.00-0.48Q82.00-0.28 81.86-0.14Q81.72 0 81.52 0L81.52 0L77.84 0Z M103.88-28Q104.08-28 104.22-27.86Q104.36-27.72 104.36-27.52L104.36-27.52L104.36-24.48Q104.36-24.28 104.22-24.14Q104.08-24 103.88-24L103.88-24L98.80-24Q98.60-24 98.60-23.80L98.60-23.80L98.60-0.48Q98.60-0.28 98.46-0.14Q98.32 0 98.12 0L98.12 0L94.44 0Q94.24 0 94.10-0.14Q93.96-0.28 93.96-0.48L93.96-0.48L93.96-23.80Q93.96-24 93.76-24L93.76-24L88.96-24Q88.76-24 88.62-24.14Q88.48-24.28 88.48-24.48L88.48-24.48L88.48-27.52Q88.48-27.72 88.62-27.86Q88.76-28 88.96-28L88.96-28L103.88-28Z"></path></g>
</svg>
</g></svg>