<svg viewBox="575 482.6892 380 26.8853" width="216" height="15.28217052631579" xmlns="http://www.w3.org/2000/svg" xmlns:xlink="http://www.w3.org/1999/xlink" preserveAspectRatio="none"><g opacity="1" transform="rotate(0 575 482.6892)">
<svg width="380" height="26.8853" x="575" y="482.6892" version="1.1" preserveAspectRatio="none" viewBox="2.48 -28.32 404.8 28.64">
  <g transform="matrix(1 0 0 1 0 0)" class="icon3126dc315-b1a1-4aea-b7b9-8cfe22d1722b"><path id="id-126dc315-b1a1-4aea-b7b9-8cfe22d1722b6izo4zJp16" d="M2.88 0Q2.48 0 2.48-0.40L2.48-0.40L2.48-27.60Q2.48-28 2.88-28L2.88-28L5.92-28Q6.32-28 6.32-27.60L6.32-27.60L6.32-0.40Q6.32 0 5.92 0L5.92 0L2.88 0Z M21.72 0Q21.32 0 21.32-0.40L21.32-0.40L21.32-27.60Q21.32-28 21.72-28L21.72-28L24.80-28Q25.12-28 25.24-27.68L25.24-27.68L32.36-10.04Q32.40-9.92 32.48-9.94Q32.56-9.96 32.56-10.08L32.56-10.08L32.56-27.60Q32.56-28 32.96-28L32.96-28L35.96-28Q36.36-28 36.36-27.60L36.36-27.60L36.36-0.40Q36.36 0 35.96 0L35.96 0L32.84 0Q32.52 0 32.40-0.32L32.40-0.32L25.28-17.96Q25.24-18.08 25.16-18.08Q25.08-18.08 25.08-17.96L25.08-17.96L25.12-0.40Q25.12 0 24.72 0L24.72 0L21.72 0Z M51.76 0Q51.36 0 51.36-0.40L51.36-0.40L51.36-27.60Q51.36-28 51.76-28L51.76-28L54.84-28Q55.16-28 55.28-27.68L55.28-27.68L62.40-10.04Q62.44-9.92 62.52-9.94Q62.60-9.96 62.60-10.08L62.60-10.08L62.60-27.60Q62.60-28 63-28L63-28L66-28Q66.40-28 66.40-27.60L66.40-27.60L66.40-0.40Q66.40 0 66 0L66 0L62.88 0Q62.56 0 62.44-0.32L62.44-0.32L55.32-17.96Q55.28-18.08 55.20-18.08Q55.12-18.08 55.12-17.96L55.12-17.96L55.16-0.40Q55.16 0 54.76 0L54.76 0L51.76 0Z M88.08 0.32Q84.80 0.32 82.80-1.68Q80.80-3.68 80.80-7L80.80-7L80.80-20.96Q80.80-24.28 82.80-26.30Q84.80-28.32 88.08-28.32L88.08-28.32Q91.40-28.32 93.42-26.30Q95.44-24.28 95.44-20.96L95.44-20.96L95.44-7Q95.44-3.68 93.42-1.68Q91.40 0.32 88.08 0.32L88.08 0.32ZM88.08-3Q89.68-3 90.64-4.06Q91.60-5.12 91.60-6.84L91.60-6.84L91.60-21.16Q91.60-22.88 90.64-23.94Q89.68-25 88.08-25L88.08-25Q86.52-25 85.58-23.94Q84.64-22.88 84.64-21.16L84.64-21.16L84.64-6.84Q84.64-5.12 85.58-4.06Q86.52-3 88.08-3L88.08-3Z M114.32 0Q113.96 0 113.88-0.36L113.88-0.36L108.12-27.56L108.12-27.64Q108.12-28 108.48-28L108.48-28L111.80-28Q112.20-28 112.24-27.64L112.24-27.64L116.04-6.88Q116.08-6.80 116.12-6.80Q116.16-6.80 116.20-6.88L116.20-6.88L119.92-27.64Q120-28 120.36-28L120.36-28L123.56-28Q124-28 123.92-27.56L123.92-27.56L118.16-0.36Q118.12 0 117.72 0L117.72 0L114.32 0Z M147.16 0Q146.80 0 146.72-0.36L146.72-0.36L145.84-4.96Q145.84-5.04 145.78-5.08Q145.72-5.12 145.64-5.12L145.64-5.12L139.20-5.12Q139.12-5.12 139.06-5.08Q139-5.04 139-4.96L139-4.96L138.08-0.36Q138.04 0 137.64 0L137.64 0L134.60 0Q134.40 0 134.30-0.12Q134.20-0.24 134.24-0.44L134.24-0.44L140.20-27.64Q140.28-28 140.64-28L140.64-28L144.16-28Q144.56-28 144.60-27.64L144.60-27.64L150.64-0.44L150.64-0.36Q150.64 0 150.28 0L150.28 0L147.16 0ZM139.68-8.32Q139.68-8.16 139.80-8.16L139.80-8.16L145.08-8.16Q145.20-8.16 145.20-8.32L145.20-8.32L142.56-22Q142.52-22.12 142.48-22.12Q142.44-22.12 142.40-22L142.40-22L139.68-8.32Z M175.40-28Q175.80-28 175.80-27.60L175.80-27.60L175.80-25.08Q175.80-24.68 175.40-24.68L175.40-24.68L170.16-24.68Q170-24.68 170-24.52L170-24.52L170-0.40Q170 0 169.60 0L169.60 0L166.56 0Q166.16 0 166.16-0.40L166.16-0.40L166.16-24.52Q166.16-24.68 166-24.68L166-24.68L161.04-24.68Q160.64-24.68 160.64-25.08L160.64-25.08L160.64-27.60Q160.64-28 161.04-28L161.04-28L175.40-28Z M202.88-25.08Q202.88-24.68 202.48-24.68L202.48-24.68L193.48-24.68Q193.32-24.68 193.32-24.52L193.32-24.52L193.32-15.84Q193.32-15.68 193.48-15.68L193.48-15.68L199-15.68Q199.40-15.68 199.40-15.28L199.40-15.28L199.40-12.76Q199.40-12.36 199-12.36L199-12.36L193.48-12.36Q193.32-12.36 193.32-12.20L193.32-12.20L193.32-3.48Q193.32-3.32 193.48-3.32L193.48-3.32L202.48-3.32Q202.88-3.32 202.88-2.92L202.88-2.92L202.88-0.40Q202.88 0 202.48 0L202.48 0L189.88 0Q189.48 0 189.48-0.40L189.48-0.40L189.48-27.60Q189.48-28 189.88-28L189.88-28L202.48-28Q202.88-28 202.88-27.60L202.88-27.60L202.88-25.08Z M248.24-28Q248.64-28 248.64-27.60L248.64-27.60L248.64-25.08Q248.64-24.68 248.24-24.68L248.24-24.68L243-24.68Q242.84-24.68 242.84-24.52L242.84-24.52L242.84-0.40Q242.84 0 242.44 0L242.44 0L239.40 0Q239 0 239-0.40L239-0.40L239-24.52Q239-24.68 238.84-24.68L238.84-24.68L233.88-24.68Q233.48-24.68 233.48-25.08L233.48-25.08L233.48-27.60Q233.48-28 233.88-28L233.88-28L248.24-28Z M272.52-27.60Q272.52-28 272.92-28L272.92-28L275.96-28Q276.36-28 276.36-27.60L276.36-27.60L276.36-0.40Q276.36 0 275.96 0L275.96 0L272.92 0Q272.52 0 272.52-0.40L272.52-0.40L272.52-12.20Q272.52-12.36 272.36-12.36L272.36-12.36L266.32-12.36Q266.16-12.36 266.16-12.20L266.16-12.20L266.16-0.40Q266.16 0 265.76 0L265.76 0L262.72 0Q262.32 0 262.32-0.40L262.32-0.40L262.32-27.60Q262.32-28 262.72-28L262.72-28L265.76-28Q266.16-28 266.16-27.60L266.16-27.60L266.16-15.84Q266.16-15.68 266.32-15.68L266.32-15.68L272.36-15.68Q272.52-15.68 272.52-15.84L272.52-15.84L272.52-27.60Z M302.44 0Q302.08 0 301.96-0.32L301.96-0.32L298.24-12.32Q298.20-12.44 298.08-12.44L298.08-12.44L295.32-12.44Q295.16-12.44 295.16-12.28L295.16-12.28L295.16-0.40Q295.16 0 294.76 0L294.76 0L291.72 0Q291.32 0 291.32-0.40L291.32-0.40L291.32-27.64Q291.32-28.04 291.72-28.04L291.72-28.04L298.88-28.04Q300.92-28.04 302.48-27.04Q304.04-26.04 304.90-24.22Q305.76-22.40 305.76-20.08L305.76-20.08Q305.76-17.56 304.70-15.70Q303.64-13.84 301.84-13.04L301.84-13.04Q301.72-12.92 301.76-12.80L301.76-12.80L305.88-0.44L305.92-0.28Q305.92 0 305.56 0L305.56 0L302.44 0ZM295.32-24.72Q295.16-24.72 295.16-24.56L295.16-24.56L295.16-15.60Q295.16-15.44 295.32-15.44L295.32-15.44L298.28-15.44Q299.92-15.44 300.92-16.70Q301.92-17.96 301.92-20.04L301.92-20.04Q301.92-22.20 300.92-23.46Q299.92-24.72 298.28-24.72L298.28-24.72L295.32-24.72Z M319.84 0Q319.44 0 319.44-0.40L319.44-0.40L319.44-27.60Q319.44-28 319.84-28L319.84-28L322.88-28Q323.28-28 323.28-27.60L323.28-27.60L323.28-0.40Q323.28 0 322.88 0L322.88 0L319.84 0Z M343.20 0Q342.84 0 342.76-0.36L342.76-0.36L337.00-27.56L337.00-27.64Q337.00-28 337.36-28L337.36-28L340.68-28Q341.08-28 341.12-27.64L341.12-27.64L344.92-6.88Q344.96-6.80 345.00-6.80Q345.04-6.80 345.08-6.88L345.08-6.88L348.80-27.64Q348.88-28 349.24-28L349.24-28L352.44-28Q352.88-28 352.80-27.56L352.80-27.56L347.04-0.36Q347.00 0 346.60 0L346.60 0L343.20 0Z M379.92-25.08Q379.92-24.68 379.52-24.68L379.52-24.68L370.52-24.68Q370.36-24.68 370.36-24.52L370.36-24.52L370.36-15.84Q370.36-15.68 370.52-15.68L370.52-15.68L376.04-15.68Q376.44-15.68 376.44-15.28L376.44-15.28L376.44-12.76Q376.44-12.36 376.04-12.36L376.04-12.36L370.52-12.36Q370.36-12.36 370.36-12.20L370.36-12.20L370.36-3.48Q370.36-3.32 370.52-3.32L370.52-3.32L379.52-3.32Q379.92-3.32 379.92-2.92L379.92-2.92L379.92-0.40Q379.92 0 379.52 0L379.52 0L366.92 0Q366.52 0 366.52-0.40L366.52-0.40L366.52-27.60Q366.52-28 366.92-28L366.92-28L379.52-28Q379.92-28 379.92-27.60L379.92-27.60L379.92-25.08Z M400.16 0.32Q397.00 0.32 395.06-1.66Q393.12-3.64 393.12-6.84L393.12-6.84L393.12-7.92Q393.12-8.32 393.52-8.32L393.52-8.32L396.48-8.32Q396.88-8.32 396.88-7.92L396.88-7.92L396.88-7.04Q396.88-5.20 397.80-4.10Q398.72-3 400.16-3L400.16-3Q401.60-3 402.54-4.06Q403.48-5.12 403.48-6.84L403.48-6.84Q403.48-8 402.98-8.88Q402.48-9.76 401.66-10.46Q400.84-11.16 399.00-12.52L399.00-12.52Q396.96-14.04 395.80-15.12Q394.64-16.20 393.84-17.72Q393.04-19.24 393.04-21.28L393.04-21.28Q393.04-24.52 394.96-26.42Q396.88-28.32 399.96-28.32L399.96-28.32Q403.16-28.32 405.10-26.28Q407.04-24.24 407.04-20.92L407.04-20.92L407.04-19.92Q407.04-19.52 406.64-19.52L406.64-19.52L403.68-19.52Q403.28-19.52 403.28-19.92L403.28-19.92L403.28-21Q403.28-22.80 402.36-23.90Q401.44-25 399.96-25L399.96-25Q398.56-25 397.70-24.02Q396.84-23.04 396.84-21.28L396.84-21.28Q396.84-19.68 397.72-18.58Q398.60-17.48 401.08-15.64L401.08-15.64Q403.52-13.84 404.74-12.72Q405.96-11.60 406.62-10.26Q407.28-8.92 407.28-7.08L407.28-7.08Q407.28-3.72 405.30-1.70Q403.32 0.32 400.16 0.32L400.16 0.32Z"></path></g>
</svg>
</g></svg>



