<svg viewBox="711.8693 192.9254 106.2613 125.4648" width="71.14305526330892" height="84" xmlns="http://www.w3.org/2000/svg" xmlns:xlink="http://www.w3.org/1999/xlink" preserveAspectRatio="none"><g opacity="1" transform="rotate(0 711.8693 192.9254)">
<svg width="106.2613" height="125.4648" x="711.8693" y="192.9254" version="1.1" preserveAspectRatio="none" viewBox="32.458580017089844 19.999998092651367 135.3414306640625 159.79998779296875">
  <g transform="matrix(-1 0 0 1 200.2585906982422 0)"><g><path d="M167.5 109.2v-.5l-40.6-70c-.2-.3-.5-.5-.8-.5H94L75.4 20.3s-.1 0-.1-.1l-.1-.1c-.1 0-.2-.1-.3-.1h-.5c-.1 0-.1 0-.2.1L44.4 38.3c-.1.1-.2.1-.2.2-.2.2-.2.3-.2.4L32.5 89.7v.4c-.1.2 0 .5.1.7l41.2 70.4c0 .1.1.1.1.2.1.1.3.2.4.2H110l15.3 17.9c.1.1.2.2.3.2h.1c.1 0 .2.1.4.1h.3c.1 0 .1 0 .2-.1h.1l29.8-18.2.1-.1c.1 0 .1-.1.2-.1l.1-.1c0-.1.1-.1.1-.2v-.1l10.8-51.8c-.3.2-.3.2-.3.1zM155 159.9h-16.8l26.2-45.2-9.4 45.2zm-2.6 1.9l-23.7 14.4 8.4-14.4h15.3zM99 146.2L36.2 91l126.7 18.5L99 146.2zm-24 13.4L36.6 93.9l60.6 53.3L75 159.6zm-29.5-119l12.2 7L35.6 85l9.9-44.4zM60.4 47l4.1-6.9h28.8l67.5 64.8L60.4 47zm100.8 60.3L35.5 88.9l23.9-40.3 101.8 58.7zM58.7 46l-10.2-5.9h13.7L58.7 46zm-10.4-7.8l23.6-14.4-8.5 14.4H48.3zm116.1 72.7l-28.4 49h-25.1l-10.5-12.3 64-36.7zm-39-70.8l36.9 63.6L96 40.1h29.4zm-59.8-1.9l9.3-15.7 16.4 15.7H65.6zm12.8 121.7l20.3-11.3 9.7 11.3h-30zm56.5 1.9l-9 15.6-13.3-15.6h22.3z" data-color="1" class="icon1126dc315-b1a1-4aea-b7b9-8cfe22d1722b"></path></g></g>
</svg>
</g></svg>